<svg width="132" height="123" viewBox="0 0 132 123" fill="none" xmlns="http://www.w3.org/2000/svg">
<path d="M58.8421 6.83333C58.8421 6.83333 58.8421 0 66.1201 0C73.3982 0 73.3982 6.83333 73.3982 6.83333V13.6667C73.3982 13.6667 73.3982 20.5 66.1201 20.5C58.8421 20.5 58.8421 13.6667 58.8421 13.6667V6.83333Z" fill="#FFAC33"/>
<path d="M124.344 54.6667C124.344 54.6667 131.623 54.6667 131.623 61.5C131.623 68.3333 124.344 68.3333 124.344 68.3333H117.066C117.066 68.3333 109.788 68.3333 109.788 61.5C109.788 54.6667 117.066 54.6667 117.066 54.6667H124.344Z" fill="#FFAC33"/>
<path d="M15.1738 54.6667C15.1738 54.6667 22.4519 54.6667 22.4519 61.5C22.4519 68.3333 15.1738 68.3333 15.1738 68.3333H7.89578C7.89578 68.3333 0.617737 68.3333 0.617737 61.5C0.617737 54.6667 7.89578 54.6667 7.89578 54.6667H15.1738Z" fill="#FFAC33"/>
<path d="M33.8092 24.9213C33.8092 24.9213 38.9548 29.7525 33.8092 34.5836C28.6637 39.4148 23.5181 34.5836 23.5181 34.5836L18.3689 29.7525C18.3689 29.7525 13.2233 24.9213 18.3689 20.0867C23.5181 15.2556 28.6637 20.0867 28.6637 20.0867L33.8092 24.9213Z" fill="#FFAC33"/>
<path d="M110.229 96.6676C110.229 96.6676 115.374 101.499 110.229 106.33C105.083 111.161 99.9376 106.33 99.9376 106.33L94.792 101.499C94.792 101.499 89.6464 96.6676 94.792 91.8365C99.9376 87.0053 105.083 91.8365 105.083 91.8365L110.229 96.6676Z" fill="#FFAC33"/>
<path d="M108.726 34.58C108.726 34.58 103.58 39.4112 98.4347 34.58C93.2891 29.7488 98.4347 24.9177 98.4347 24.9177L103.58 20.0865C103.58 20.0865 108.726 15.2553 113.871 20.0865C119.017 24.9177 113.871 29.7488 113.871 29.7488L108.726 34.58Z" fill="#FFAC33"/>
<path d="M32.3063 106.33C32.3063 106.33 27.1607 111.161 22.0152 106.33C16.8696 101.499 22.0152 96.6676 22.0152 96.6676L27.1607 91.8365C27.1607 91.8365 32.3063 87.0053 37.4519 91.8365C42.5975 96.6676 37.4519 101.499 37.4519 101.499L32.3063 106.33Z" fill="#FFAC33"/>
<path d="M58.8421 109.333C58.8421 109.333 58.8421 102.5 66.1201 102.5C73.3982 102.5 73.3982 109.333 73.3982 109.333V116.167C73.3982 116.167 73.3982 123 66.1201 123C58.8421 123 58.8421 116.167 58.8421 116.167V109.333Z" fill="#FFAC33"/>
<path d="M102.51 61.5C102.51 42.6298 86.2148 27.3333 66.1201 27.3333C46.0218 27.3333 29.7299 42.6298 29.7299 61.5C29.7299 80.3668 46.0218 95.6667 66.1201 95.6667C86.2148 95.6667 102.51 80.3668 102.51 61.5Z" fill="#FFAC33"/>
</svg>
