<svg width="16" height="18" viewBox="0 0 16 18" fill="none" xmlns="http://www.w3.org/2000/svg">
<path d="M8.66947 0.965332H7.33018C7.21113 0.965332 7.15161 1.02486 7.15161 1.1439V8.15283H0.500349C0.381301 8.15283 0.321777 8.21236 0.321777 8.3314V9.67069C0.321777 9.78974 0.381301 9.84926 0.500349 9.84926H7.15161V16.8582C7.15161 16.9772 7.21113 17.0368 7.33018 17.0368H8.66947C8.78852 17.0368 8.84804 16.9772 8.84804 16.8582V9.84926H15.5003C15.6194 9.84926 15.6789 9.78974 15.6789 9.67069V8.3314C15.6789 8.21236 15.6194 8.15283 15.5003 8.15283H8.84804V1.1439C8.84804 1.02486 8.78852 0.965332 8.66947 0.965332Z" fill="black" fill-opacity="0.85"/>
</svg>
